USFL
nRows=328
nColumns=2
inDegrees=yes
endheader
time	med_gas_r	
8.5494	 38.101941	
8.58266	 38.063388	
8.61593	 38.053448	
8.64919	 38.077910	
8.68246	 38.070135	
8.71573	 38.083404	
8.74899	 38.093655	
8.78226	 38.062218	
8.81552	 38.078010	
8.84879	 38.065092	
8.88206	 38.075825	
8.91532	 38.032240	
8.94859	 38.074424	
8.98185	 38.063065	
9.01512	 38.074515	
9.04839	 38.063086	
9.08165	 38.056722	
9.11492	 38.057597	
9.14819	 38.086110	
9.18145	 38.091237	
9.21472	 38.069931	
9.24798	 38.058904	
9.28125	 38.060817	
9.31452	 38.072793	
9.34778	 38.071081	
9.38105	 38.080251	
9.41431	 38.064733	
9.44758	 38.048812	
9.48085	 38.066579	
9.51411	 38.065646	
9.54738	 38.073747	
9.58065	 38.074930	
9.61391	 38.077200	
9.64718	 38.078877	
9.68044	 38.108523	
9.71371	 38.105403	
9.74698	 38.092902	
9.78024	 38.096870	
9.81351	 38.094094	
9.84677	 38.099198	
9.88004	 38.133783	
9.91331	 38.132151	
9.94657	 38.123562	
9.97984	 38.132190	
10.0131	 38.132103	
10.0464	 38.108302	
10.0796	 38.107997	
10.1129	 38.091547	
10.1462	 38.060227	
10.1794	 38.045019	
10.2127	 38.053323	
10.246	 38.062253	
10.2792	 38.071265	
10.3125	 38.068413	
10.3458	 38.061247	
10.379	 38.067114	
10.4123	 38.065558	
10.4456	 38.050427	
10.4788	 38.051511	
10.5121	 38.085680	
10.5454	 38.085476	
10.5786	 38.059522	
10.6119	 38.051087	
10.6452	 38.074065	
10.6784	 38.092278	
10.7117	 38.088151	
10.745	 38.090301	
10.7782	 38.074261	
10.8115	 38.077636	
10.8448	 38.080818	
10.878	 38.091198	
10.9113	 38.103904	
10.9446	 38.120952	
10.9778	 38.127597	
11.0111	 38.103945	
11.0444	 38.127675	
11.0776	 38.177640	
11.1109	 38.184006	
11.1442	 38.141159	
11.1774	 38.078981	
11.2107	 38.072826	
11.244	 38.055772	
11.2772	 38.082395	
11.3105	 38.087888	
11.3437	 38.102376	
11.377	 38.093897	
11.4103	 38.061185	
11.4435	 38.103164	
11.4768	 38.163932	
11.5101	 38.290257	
11.5433	 38.337317	
11.5766	 38.340382	
11.6099	 38.364531	
11.6431	 38.403883	
11.6764	 38.410866	
11.7097	 38.440644	
11.7429	 38.440068	
11.7762	 38.435729	
11.8095	 38.449833	
11.8427	 38.431946	
11.876	 38.402462	
11.9093	 38.365109	
11.9425	 38.411654	
11.9758	 38.424652	
12.0091	 38.406880	
12.0423	 38.385913	
12.0756	 38.378305	
12.1089	 38.355555	
12.1421	 38.377990	
12.1754	 38.401987	
12.2087	 38.405645	
12.2419	 38.403613	
12.2752	 38.356289	
12.3085	 38.328967	
12.3417	 38.282651	
12.375	 38.287107	
12.4083	 38.277389	
12.4415	 38.273247	
12.4748	 38.255855	
12.5081	 38.279668	
12.5413	 38.250503	
12.5746	 38.260986	
12.6079	 38.218896	
12.6411	 38.281353	
12.6744	 38.299444	
12.7077	 38.347398	
12.7409	 38.335414	
12.7742	 38.326738	
12.8075	 38.292511	
12.8407	 38.241287	
12.874	 38.259814	
12.9073	 37.892212	
12.9405	 37.711517	
12.9738	 37.612135	
13.0071	 37.110824	
13.0403	 36.941108	
13.0736	 36.895600	
13.1069	 36.766600	
13.1401	 36.680532	
13.1734	 36.767508	
13.2067	 36.696859	
13.2399	 36.580540	
13.2732	 36.422298	
13.3065	 36.239336	
13.3397	 36.171900	
13.373	 35.859752	
13.4062	 35.829404	
13.4395	 35.625741	
13.4728	 35.447325	
13.506	 35.345169	
13.5393	 35.332092	
13.5726	 35.270877	
13.6058	 35.303808	
13.6391	 35.359735	
13.6724	 35.292767	
13.7056	 35.244880	
13.7389	 35.012941	
13.7722	 34.985259	
13.8054	 34.995353	
13.8387	 34.967397	
13.872	 34.924800	
13.9052	 34.935300	
13.9385	 34.850629	
13.9718	 34.671998	
14.005	 34.436200	
14.0383	 34.342842	
14.0716	 34.259114	
14.1048	 35.017221	
14.1381	 34.878313	
14.1714	 34.833168	
14.2046	 34.830303	
14.2379	 34.665382	
14.2712	 34.512065	
14.3044	 34.513515	
14.3377	 34.346153	
14.371	 34.234697	
14.4042	 34.183278	
14.4375	 33.923391	
14.4708	 33.719774	
14.504	 33.414887	
14.5373	 32.981373	
14.5706	 33.041026	
14.6038	 32.855759	
14.6371	 32.742009	
14.6704	 32.880876	
14.7036	 32.662839	
14.7369	 32.428137	
14.7702	 32.440674	
14.8034	 32.182752	
14.8367	 32.024286	
14.87	 32.036296	
14.9032	 32.034634	
14.9365	 32.153307	
14.9698	 31.888659	
15.003	 31.731971	
15.0363	 31.673476	
15.0696	 31.507783	
15.1028	 31.320514	
15.1361	 31.292716	
15.1694	 31.179620	
15.2026	 31.065544	
15.2359	 31.049776	
15.2692	 30.970149	
15.3024	 30.965137	
15.3357	 31.161856	
15.369	 31.254185	
15.4022	 31.373768	
15.4355	 31.574083	
15.4687	 31.802527	
15.502	 31.807741	
15.5353	 31.907355	
15.5685	 32.084455	
15.6018	 32.268899	
15.6351	 32.387015	
15.6683	 32.429432	
15.7016	 32.487287	
15.7349	 32.543918	
15.7681	 32.609988	
15.8014	 32.691012	
15.8347	 32.720957	
15.8679	 32.753859	
15.9012	 32.782528	
15.9345	 32.797185	
15.9677	 32.691209	
16.001	 32.627890	
16.0343	 32.619365	
16.0675	 32.633305	
16.1008	 32.587163	
16.1341	 32.559512	
16.1673	 32.549834	
16.2006	 32.561401	
16.2339	 32.548554	
16.2671	 32.532994	
16.3004	 32.542486	
16.3337	 32.531831	
16.3669	 32.523056	
16.4002	 32.538742	
16.4335	 32.531993	
16.4667	 32.508638	
16.5	 32.485100	
16.5333	 32.461193	
16.5665	 32.446076	
16.5998	 32.441472	
16.6331	 32.471206	
16.6663	 32.502720	
16.6996	 32.517599	
16.7329	 32.544748	
16.7661	 32.561131	
16.7994	 32.565841	
16.8327	 32.602207	
16.8659	 32.627856	
16.8992	 32.620693	
16.9325	 32.659958	
16.9657	 32.660627	
16.999	 32.714816	
17.0323	 32.864928	
17.0655	 32.963339	
17.0988	 33.134666	
17.1321	 33.363245	
17.1653	 35.909483	
17.1986	 36.108303	
17.2319	 36.293937	
17.2651	 36.333909	
17.2984	 36.462981	
17.3317	 36.701565	
17.3649	 36.624044	
17.3982	 36.633303	
17.4315	 36.692060	
17.4647	 36.643164	
17.498	 36.678674	
17.5312	 37.922024	
17.5645	 37.910664	
17.5978	 37.950000	
17.631	 37.904112	
17.6643	 38.013946	
17.6976	 38.108643	
17.7308	 38.058546	
17.7641	 38.053002	
17.7974	 38.068561	
17.8306	 38.009424	
17.8639	 38.098282	
17.8972	 38.036349	
17.9304	 37.954432	
17.9637	 37.957522	
17.997	 37.887958	
18.0302	 37.772827	
18.0635	 37.864544	
18.0968	 37.784491	
18.13	 37.839221	
18.1633	 37.967939	
18.1966	 37.889965	
18.2298	 38.002711	
18.2631	 37.964318	
18.2964	 38.049926	
18.3296	 38.159158	
18.3629	 38.112489	
18.3962	 38.097951	
18.4294	 38.142994	
18.4627	 38.103867	
18.496	 38.125716	
18.5292	 38.151808	
18.5625	 38.114264	
18.5958	 38.181086	
18.629	 39.096867	
18.6623	 39.102009	
18.6956	 39.127321	
18.7288	 39.082364	
18.7621	 39.015351	
18.7954	 39.022480	
18.8286	 39.027747	
18.8619	 39.027964	
18.8952	 39.074968	
18.9284	 39.088991	
18.9617	 39.152741	
18.995	 39.164275	
19.0282	 39.154011	
19.0615	 39.137251	
19.0948	 39.120372	
19.128	 39.054211	
19.1613	 39.030299	
19.1946	 39.005166	
19.2278	 39.026228	
19.2611	 39.030508	
19.2944	 39.014614	
19.3276	 39.043900	
19.3609	 39.008829	
19.3942	 39.016302	
19.4274	 39.030275	
